HIERARCHY
ROOT Hips
{
	OFFSET 0.00000 0.00000 0.00000
	CHANNELS 6 Xposition Yposition Zposition Zrotation Yrotation Xrotation 
	JOINT LHipJoint
	{
		OFFSET 0 0 0
		CHANNELS 3 Zrotation Yrotation Xrotation
		JOINT LeftUpLeg
		{
			OFFSET 1.56857 -1.73443 1.15205
			CHANNELS 3 Zrotation Yrotation Xrotation
			JOINT LeftLeg
			{
				OFFSET 2.39362 -6.57643 0.00000
				CHANNELS 3 Zrotation Yrotation Xrotation
				JOINT LeftFoot
				{
					OFFSET 2.50952 -6.89485 0.00000
					CHANNELS 3 Zrotation Yrotation Xrotation
					JOINT LeftToeBase
					{
						OFFSET 0.17171 -0.47178 1.88682
						CHANNELS 3 Zrotation Yrotation Xrotation
						End Site
						{
							OFFSET 0.00000 -0.00000 0.98146
						}
					}
				}
			}
		}
	}
	JOINT RHipJoint
	{
		OFFSET 0 0 0
		CHANNELS 3 Zrotation Yrotation Xrotation
		JOINT RightUpLeg
		{
			OFFSET -1.28153 -1.73443 1.15205
			CHANNELS 3 Zrotation Yrotation Xrotation
			JOINT RightLeg
			{
				OFFSET -2.26861 -6.23296 0.00000
				CHANNELS 3 Zrotation Yrotation Xrotation
				JOINT RightFoot
				{
					OFFSET -2.54143 -6.98254 0.00000
					CHANNELS 3 Zrotation Yrotation Xrotation
					JOINT RightToeBase
					{
						OFFSET -0.23309 -0.64041 1.93119
						CHANNELS 3 Zrotation Yrotation Xrotation
						End Site
						{
							OFFSET -0.00000 -0.00000 1.02013
						}
					}
				}
			}
		}
	}
	JOINT LowerBack
	{
		OFFSET 0 0 0
		CHANNELS 3 Zrotation Yrotation Xrotation
		JOINT Spine
		{
			OFFSET -0.07096 2.10460 -0.27878
			CHANNELS 3 Zrotation Yrotation Xrotation
			JOINT Spine1
			{
				OFFSET -0.00826 2.13662 -0.08279
				CHANNELS 3 Zrotation Yrotation Xrotation
				JOINT Neck
				{
					OFFSET 0 0 0
					CHANNELS 3 Zrotation Yrotation Xrotation
					JOINT Neck1
					{
						OFFSET 0.03239 1.77799 0.24435
						CHANNELS 3 Zrotation Yrotation Xrotation
						JOINT Head
						{
							OFFSET 0.01026 1.74194 -0.49664
							CHANNELS 3 Zrotation Yrotation Xrotation
							End Site
							{
								OFFSET 0.00170 1.83057 -0.19653
							}
						}
					}
				}
				JOINT LeftShoulder
				{
					OFFSET 0 0 0
					CHANNELS 3 Zrotation Yrotation Xrotation
					JOINT LeftArm
					{
						OFFSET 3.19178 1.35907 -0.31412
						CHANNELS 3 Zrotation Yrotation Xrotation
						JOINT LeftForeArm
						{
							OFFSET 4.85247 -0.00000 -0.00000
							CHANNELS 3 Zrotation Yrotation Xrotation
							JOINT LeftHand
							{
								OFFSET 3.55584 -0.00000 0.00000
								CHANNELS 3 Zrotation Yrotation Xrotation
								JOINT LeftFingerBase
								{
									OFFSET 0 0 0
									CHANNELS 3 Zrotation Yrotation Xrotation
									JOINT LeftHandIndex1
									{
										OFFSET 0.69320 -0.00000 0.00000
										CHANNELS 3 Zrotation Yrotation Xrotation
										End Site
										{
											OFFSET 0.55888 -0.00000 0.00000
										}
									}
								}
								JOINT LThumb
								{
									OFFSET 0 0 0
									CHANNELS 3 Zrotation Yrotation Xrotation
									End Site
									{
										OFFSET 0.56741 -0.00000 0.56741
									}
								}
							}
						}
					}
				}
				JOINT RightShoulder
				{
					OFFSET 0 0 0
					CHANNELS 3 Zrotation Yrotation Xrotation
					JOINT RightArm
					{
						OFFSET -3.28999 1.24191 -0.26899
						CHANNELS 3 Zrotation Yrotation Xrotation
						JOINT RightForeArm
						{
							OFFSET -4.64462 -0.00000 0.00000
							CHANNELS 3 Zrotation Yrotation Xrotation
							JOINT RightHand
							{
								OFFSET -3.40703 -0.00000 0.00000
								CHANNELS 3 Zrotation Yrotation Xrotation
								JOINT RightFingerBase
								{
									OFFSET 0 0 0
									CHANNELS 3 Zrotation Yrotation Xrotation
									JOINT RightHandIndex1
									{
										OFFSET -0.61958 -0.00000 0.00000
										CHANNELS 3 Zrotation Yrotation Xrotation
										End Site
										{
											OFFSET -0.49952 -0.00000 0.00000
										}
									}
								}
								JOINT RThumb
								{
									OFFSET 0 0 0
									CHANNELS 3 Zrotation Yrotation Xrotation
									End Site
									{
										OFFSET -0.50715 -0.00000 0.50715
									}
								}
							}
						}
					}
				}
			}
		}
	}
}
MOTION
Frames: 16
Frame Time: .0083333
-31.2785 15.2322 0.689 0 0 0 0 0 0 -21 0 0 0 0 0 0 0 0 0 0 0 0 0 0 21 0 0 0 0 0 0 0 0 0 0 0 0 0 0 0 0 0 0 0 0 0 0 -16 0 0 21 0 0 11 0 0 0 -8 0 0 0 0 0 0 0 0 0 0 0 0 0 0 0 0 0 0 0 0 8 0 0 0 0 0 0 0 0 0 0 0 0 0 0 0 0 0
-31.2785 15.2322 0.6890 124.1630 74.4759 130.6440 0.0000 0.0000 0.0000 -35.3780 -2.6200 -2.3510 4.5560 12.8657 38.8677 3.4623 -8.9101 -33.7457 1.2025 -6.9575 -19.5894 0.0000 0.0000 0.0000 1.9885 -0.4991 -39.0734 -11.1645 -18.0147 63.3147 -40.0661 9.4670 167.7287 -1.6274 -8.0425 22.8431 -13.8540 -2.4800 19.2810 -4.0314 -5.7980 4.0831 4.7017 -2.4584 -5.3032 -2.6304 0.0824 -29.6580 5.3297 -0.1454 19.1878 2.3800 0.4692 11.0660 0.0000 0.0000 0.0000 -81.2840 -15.4789 51.1053 62.8962 -57.0336 -36.7612 -0.0000 -0.0000 2.7403 49.8480 -29.9985 -30.6531 -7.1250 0.0000 -0.0000 10.3035 -11.2661 -12.2978 0.0000 0.0000 0.0000 68.9725 -41.2266 49.9847 -48.4920 52.3689 -24.9748 0.0000 -0.0000 -15.7019 -31.2794 -23.7542 13.7510 7.1250 -0.0000 -0.0000 -2.2816 -57.2113 0.6827
-30.6261 15.2880 0.6718 120.5510 74.3024 126.7750 0.0000 0.0000 0.0000 -35.8603 -0.6980 1.6028 3.8748 11.9919 35.7033 3.0042 -8.1364 -31.3690 1.6530 -8.1024 -23.0256 0.0000 0.0000 0.0000 0.2128 1.4005 -42.5615 -11.9727 -18.3791 65.9024 -39.8820 7.4383 167.1075 -1.2718 -7.1476 20.1535 -14.9346 -2.5669 19.9437 -4.0858 -6.3564 3.4410 5.4116 -2.6231 -6.1590 -2.3238 0.6970 -29.7020 4.9580 0.6457 19.9920 2.3480 0.8008 11.3399 -0.0000 -0.0000 0.0000 -81.3430 -16.4749 51.2006 65.4243 -57.5901 -38.8890 -0.0000 -0.0000 1.6941 50.0332 -30.3005 -31.0475 -7.1250 0.0000 -0.0000 10.3083 -11.7155 -12.3666 -0.0000 -0.0000 0.0000 65.7925 -44.2736 51.2523 -49.5452 52.8104 -25.8114 0.0000 -0.0000 -14.9899 -29.4449 -23.4560 12.6639 7.1250 -0.0000 -0.0000 -0.2974 -56.4649 0.0836
-29.9677 15.3441 0.6764 117.4500 73.8791 123.8720 0.0000 0.0000 0.0000 -36.1810 0.8154 4.8134 3.3675 11.2675 33.1875 2.5859 -7.9003 -29.0164 1.9571 -8.7761 -25.0974 0.0000 0.0000 0.0000 -1.3466 3.5993 -46.1674 -12.8903 -18.7422 68.7843 -39.7710 5.9913 166.8126 -1.0027 -6.3720 17.8677 -16.4419 -2.7951 19.1072 -4.0516 -6.7847 3.4308 6.2621 -2.8599 -5.4453 -1.9148 1.3392 -30.1230 4.4670 1.4846 20.3185 2.2596 1.1443 11.5059 0.0000 0.0000 0.0000 -80.9446 -18.5224 51.3216 67.8083 -58.0549 -40.9070 -0.0000 -0.0000 0.4764 50.3878 -30.1246 -31.2330 -7.1250 0.0000 -0.0000 10.5495 -11.6978 -12.6624 0.0000 0.0000 0.0000 62.7498 -46.0252 52.7180 -50.2376 53.0909 -26.3640 0.0000 -0.0000 -14.5201 -29.3879 -23.2561 12.5370 7.1250 -0.0000 -0.0000 -0.2864 -56.2334 0.0789
-29.2916 15.4042 0.6884 115.5740 73.5082 122.1540 0.0000 0.0000 0.0000 -36.1128 2.0629 7.8942 2.9684 10.6438 31.0877 2.0935 -7.4533 -26.0196 2.3807 -9.6177 -27.7475 0.0000 0.0000 0.0000 -2.6846 5.4151 -49.5833 -14.0342 -19.1244 72.3090 -39.6928 4.7354 166.7041 -0.7183 -5.4159 15.0986 -17.6937 -3.1199 18.3701 -3.9490 -7.3073 3.3087 7.0588 -3.1403 -4.8897 -1.3917 2.0071 -30.3393 3.8386 2.3447 20.7737 2.1065 1.4829 11.6981 0.0000 0.0000 0.0000 -80.1475 -20.0432 51.5064 70.5055 -58.5142 -43.2015 -0.0000 0.0000 -0.5592 50.8042 -29.5495 -31.1648 -7.1250 0.0000 -0.0000 10.9468 -11.2449 -13.0876 0.0000 0.0000 0.0000 59.4261 -47.7554 54.6391 -50.9901 53.3871 -26.9669 0.0000 -0.0000 -15.3494 -29.0977 -22.9099 12.2243 7.1250 -0.0000 -0.0000 -0.0566 -55.7910 0.0150
-28.6042 15.4661 0.7000 114.2710 73.3084 120.9530 0.0000 0.0000 0.0000 -35.7153 3.2542 10.8356 2.6418 10.0914 29.2731 1.5683 -6.8141 -22.4401 3.1236 -10.8924 -31.9179 0.0000 0.0000 0.0000 -3.8753 6.9441 -52.6505 -15.4181 -19.4890 76.4929 -39.6681 4.1800 166.7644 -0.6698 -5.2337 14.5763 -18.8990 -3.3503 17.9411 -3.5446 -7.7919 2.9572 8.1820 -3.3694 -4.7098 -1.2511 2.6387 -30.3651 3.3578 3.2887 21.4202 2.0892 1.8432 11.9310 -0.0000 -0.0000 0.0000 -79.5188 -21.0134 51.9697 73.4984 -58.9457 -45.7598 -0.0000 0.0000 -1.7526 51.1912 -29.1862 -31.2294 -7.1250 0.0000 -0.0000 11.2632 -11.0238 -13.4451 -0.0000 -0.0000 0.0000 55.6178 -49.8236 56.7481 -52.2823 53.8755 -28.0074 0.0000 -0.0000 -16.2830 -28.9466 -22.9253 12.1583 7.1250 -0.0000 -0.0000 0.1126 -55.7750 -0.0298
-27.9125 15.5391 0.7215 113.9530 73.3961 120.4850 0.0000 0.0000 0.0000 -34.6194 4.4330 13.8662 2.3039 9.4723 27.2843 1.0478 -7.1634 -18.2799 2.5852 -9.9913 -28.9484 0.0000 0.0000 0.0000 -4.3705 8.1262 -54.5999 -17.9898 -19.9028 84.1134 -45.1438 41.4088 140.2264 -0.5532 -4.7644 13.2377 -19.5345 -3.6882 17.3297 -3.2836 -8.1949 2.9847 8.7799 -3.6285 -4.1036 -0.5609 3.2694 -30.2367 2.5927 4.0744 21.4606 1.8289 2.1408 11.9345 0.0000 0.0000 0.0000 -78.2250 -22.1373 52.4242 76.7780 -59.3290 -48.5752 -0.0000 0.0000 -3.3100 51.6782 -29.2325 -31.7111 -7.1250 0.0000 -0.0000 11.5064 -11.3457 -13.7971 0.0000 0.0000 0.0000 52.5793 -51.3414 58.5681 -53.3717 54.2680 -28.8896 0.0000 -0.0000 -16.8867 -29.0150 -22.6521 12.0580 7.1250 -0.0000 -0.0000 -0.0317 -55.4912 0.0082
-27.2024 15.6139 0.7413 114.1610 73.7549 120.3800 0.0000 0.0000 0.0000 -33.1779 5.4184 17.0886 1.9745 8.8127 25.2113 0.4667 -5.3758 -12.1882 1.4097 -7.5097 -21.2345 0.0000 0.0000 0.0000 -4.2777 9.1067 -55.2848 -19.9386 -19.9999 89.8205 13.5938 61.8827 72.4530 -0.3630 -3.8705 10.7126 -19.8141 -4.0991 16.4835 -2.9909 -8.5323 3.2345 9.1589 -3.9134 -3.1730 0.2223 3.9408 -30.6091 1.6964 4.9181 22.0460 1.5423 2.4459 12.2605 -0.0000 -0.0000 0.0000 -76.8496 -23.0462 52.5828 80.5072 -59.6567 -51.7885 -0.0000 0.0000 -4.5357 51.4953 -29.1484 -31.4762 -7.1250 0.0000 -0.0000 11.4357 -11.1449 -13.6777 -0.0000 -0.0000 0.0000 49.6772 -52.4290 60.3899 -54.2800 54.5823 -29.6284 0.0000 -0.0000 -17.4806 -29.2065 -22.3018 11.9774 7.1250 -0.0000 -0.0000 -0.3254 -55.1486 0.0811
-26.4756 15.6893 0.7516 114.0960 73.9626 119.9450 0.0000 0.0000 0.0000 -31.9740 6.4055 20.2109 1.6882 8.1841 23.2745 0.1123 -2.9699 -5.9959 0.9660 -6.2576 -17.5337 0.0000 0.0000 0.0000 -4.3465 9.8502 -55.3898 -18.7574 -19.9629 86.3648 5.1382 36.4461 13.0144 -0.4895 -4.4862 12.4486 -20.2068 -4.3643 16.1840 -2.5972 -8.9075 3.0553 9.8046 -4.1221 -2.9743 1.4152 4.6199 -30.8314 -0.0037 5.8561 23.1321 0.9089 2.7014 12.8280 -0.0000 -0.0000 0.0000 -76.0887 -23.0045 52.7492 84.5416 -59.8871 -55.2747 -0.0000 0.0000 -4.9860 50.8181 -28.9739 -30.7243 -7.1250 0.0000 -0.0000 11.1302 -10.5705 -13.2109 -0.0000 -0.0000 0.0000 46.1039 -53.9974 62.7035 -55.3722 54.9451 -30.5205 0.0000 -0.0000 -18.0745 -29.4379 -22.2887 12.0813 7.1250 -0.0000 -0.0000 -0.5794 -55.1838 0.1449
-25.7437 15.7663 0.7500 113.8570 73.8550 119.3800 0.0000 0.0000 0.0000 -31.0109 7.4485 22.9964 1.4779 7.6815 21.7506 0.0026 0.0930 0.9355 0.0223 -0.9650 -2.6525 0.0000 0.0000 0.0000 -4.6741 10.0901 -54.9796 -15.8087 -19.5735 77.6613 -0.3929 -1.2592 -12.3654 -0.4605 -4.3528 12.0715 -20.6170 -4.7266 15.1430 -2.4548 -9.1425 3.3457 10.0207 -4.3747 -1.9113 1.9233 5.1475 -30.8099 -0.7990 6.6171 23.3323 0.6730 2.9597 12.9631 0.0000 -0.0000 0.0000 -75.0163 -23.3950 53.2412 88.0072 -59.9850 -58.2743 -0.0000 0.0000 -5.9767 50.4829 -29.2016 -30.6040 -7.1250 0.0000 -0.0000 10.8830 -10.6623 -12.9214 0.0000 -0.0000 0.0000 44.0052 -54.8493 63.7437 -55.9795 55.1398 -31.0182 0.0000 -0.0000 -18.4043 -29.4432 -21.4349 11.6555 7.1250 -0.0000 -0.0000 -0.7770 -54.2452 0.1765
-25.0450 15.8430 0.7682 114.7080 74.8652 120.1120 0.0000 0.0000 0.0000 -28.7780 8.0366 25.5210 1.2757 7.1582 20.1850 0.0375 2.6582 3.6561 0.0076 0.5643 1.5506 0.0000 0.0000 0.0000 -3.5611 11.1491 -54.5608 -13.3339 -18.8994 70.1594 -0.4240 -1.9440 -13.1624 -0.5114 -4.5837 12.7250 -19.9278 -4.9147 15.1038 -1.9870 -9.3726 2.9103 10.2279 -4.4456 -2.3470 2.3119 5.5913 -30.3853 -1.2931 7.2640 23.8796 0.5490 3.2037 13.1572 -0.0000 0.0000 0.0000 -74.1377 -22.5552 54.0049 91.5053 -59.9914 -61.3036 -0.0000 0.0000 -6.4942 50.6805 -30.5546 -31.8264 -7.1250 0.0000 -0.0000 10.5691 -12.3560 -12.7797 -0.0000 0.0000 0.0000 40.5890 -56.5453 66.2595 -57.5858 55.6315 -32.3402 0.0000 -0.0000 -18.3659 -29.0965 -20.6430 11.1002 7.1250 -0.0000 -0.0000 -0.5756 -53.3017 0.1175
-24.2733 15.9140 0.7140 111.4030 71.2770 116.0730 0.0000 0.0000 0.0000 -32.6770 8.7132 28.8809 1.1583 6.8328 19.2210 0.0393 2.2428 3.6252 0.1859 -2.7770 -7.6584 0.0000 0.0000 0.0000 -7.7316 8.2231 -52.8576 -10.7899 -17.8307 62.0974 -0.3827 -0.8681 -12.0328 -0.4714 -4.4036 12.2150 -23.0986 -5.3410 14.5872 -3.0130 -10.1781 3.1209 10.6439 -4.9130 -1.1894 2.9768 6.1121 -30.1255 -1.7728 7.8772 24.1841 0.3797 3.4613 13.3013 0.0000 -0.0000 0.0000 -73.1296 -21.9180 54.3707 94.9973 -59.9054 -64.3264 -0.0000 0.0000 -6.7364 50.7025 -32.1827 -33.0558 -7.1250 0.0000 -0.0000 10.0586 -14.2398 -12.3890 0.0000 -0.0000 0.0000 38.2487 -57.1931 67.9802 -59.4980 56.1747 -33.9238 0.0000 -0.0000 -18.4546 -28.1990 -21.9341 11.3255 7.1250 -0.0000 -0.0000 0.6682 -54.5352 -0.1565
-23.6251 15.9765 0.7568 115.8290 74.8092 120.6960 0.0000 0.0000 0.0000 -27.7527 8.2751 30.8021 1.0894 6.6331 18.6329 0.0227 2.6011 3.0226 0.3664 -3.8883 -10.7626 0.0000 0.0000 0.0000 -3.4655 10.5405 -52.2239 -8.5389 -16.5017 54.4814 -0.3479 -2.3170 -12.2342 -0.3752 -3.9342 10.8916 -19.9159 -5.7314 13.9658 -1.8515 -10.1617 3.0550 10.2175 -4.9658 -1.2924 3.7510 6.6569 -30.0483 -2.5361 8.5799 24.6671 0.1096 3.7194 13.5895 -0.0000 -0.0000 0.0000 -72.3629 -21.0991 54.5542 98.1833 -59.7454 -67.0808 -0.0000 0.0000 -6.3023 51.2126 -32.7884 -33.9737 -7.1250 0.0000 -0.0000 10.1206 -15.2055 -12.5881 -0.0000 -0.0000 0.0000 36.2347 -57.4403 69.3589 -60.6403 56.4782 -34.8744 0.0000 -0.0000 -18.0816 -27.2814 -20.7702 10.3641 7.1250 -0.0000 -0.0000 1.3509 -53.0845 -0.2687
-22.8987 16.0237 0.7122 115.1630 73.3334 119.6770 0.0000 0.0000 0.0000 -30.4448 7.2123 32.5915 1.3373 7.3223 20.6738 -0.0196 3.6296 1.4934 0.4709 -4.4011 -12.2078 0.0000 0.0000 0.0000 -4.8606 8.4867 -50.5645 -6.4062 -14.8107 46.5908 -0.3878 -1.1971 -12.2584 -0.5357 -4.6899 13.0261 -20.8904 -6.2175 13.1393 -2.2258 -10.6712 3.3208 10.1496 -5.3232 -0.2676 2.7213 6.8409 -29.1787 -1.3392 8.9206 24.0430 0.7651 3.9749 13.0491 -0.0000 -0.0000 0.0000 -71.5068 -20.3613 54.7422 100.7907 -59.5554 -69.3310 -0.0000 0.0000 -6.2536 52.0156 -32.6138 -34.6150 -7.1250 0.0000 -0.0000 10.5905 -15.4586 -13.2220 -0.0000 -0.0000 0.0000 34.8885 -57.4710 70.0907 -62.2650 56.8839 -36.2321 0.0000 -0.0000 -17.7726 -26.2115 -20.2633 9.6761 7.1250 -0.0000 -0.0000 2.3322 -52.3320 -0.4211
-22.1957 16.0568 0.6840 116.5850 73.8359 120.9400 0.0000 0.0000 0.0000 -30.8013 6.1134 33.8969 1.6842 8.1747 23.2460 -0.0741 5.2862 0.3755 0.4581 -4.3419 -12.0406 0.0000 0.0000 0.0000 -3.8823 7.7174 -48.7139 -4.6931 -13.0296 39.4795 -0.3884 -0.7929 -12.0868 -0.2395 -3.1493 8.6947 -20.0891 -6.4343 13.0506 -1.8050 -10.9119 2.9963 10.2239 -5.4134 -0.5804 2.2093 6.9084 -28.6045 -1.1906 9.2207 24.0477 0.9417 4.0925 12.9117 0.0000 0.0000 0.0000 -71.5388 -18.7992 55.5442 103.1028 -59.3412 -71.3223 -0.0000 0.0000 -6.4605 52.6347 -32.1272 -34.8550 -7.1250 0.0000 -0.0000 11.0717 -15.2609 -13.8154 0.0000 0.0000 0.0000 33.3348 -57.7782 70.7508 -63.3071 57.1287 -37.1061 0.0000 -0.0000 -17.3064 -24.9968 -19.6312 8.9025 7.1250 -0.0000 -0.0000 3.4087 -51.4313 -0.5405
-21.5050 16.0773 0.6580 117.9410 74.6231 122.2330 0.0000 0.0000 0.0000 -30.5331 5.4074 34.4069 2.2182 9.3065 26.7590 -0.1371 6.8548 -0.3540 0.5047 -4.5541 -12.6411 0.0000 0.0000 0.0000 -2.5941 7.2420 -46.8680 -3.1987 -11.0100 32.3135 -0.3497 -1.3432 -11.7414 -0.3628 -3.8695 10.7098 -19.0180 -6.6401 12.5227 -1.4425 -10.9693 2.8936 9.9953 -5.4622 -0.5246 2.2511 6.9650 -28.0445 -1.5476 9.3901 23.7081 0.8050 4.1369 12.6976 -0.0000 0.0000 0.0000 -71.6303 -17.3376 56.3539 104.3492 -59.2075 -72.3937 -0.0000 0.0000 -6.7695 52.7424 -32.2837 -35.0766 -7.1250 0.0000 -0.0000 11.0742 -15.5017 -13.8507 -0.0000 0.0000 0.0000 33.5115 -57.7233 69.9396 -63.3737 57.1439 -37.1620 0.0000 -0.0000 -16.6351 -24.4919 -18.7208 8.3185 7.1250 -0.0000 -0.0000 3.6908 -50.3687 -0.4889
